# xmcd
#
# Track frame offsets: 
#        150
#        26250
#        54000
#        78064
#        114978
#        140541
#        158703
#        178960
#        202645
#        234273
#        253998
#
# Disc length: 3623 seconds
#
# Revision: 0
# Processed by: cddbd v1.5.2PL0 Copyright (c) Steve Scherf et al.
# Submitted via: ExactAudioCopy v1.2
#
DISCID=7b0e250b
DTITLE=Little Freddie King - You Make My Night
DYEAR=2017
DGENRE=Blues
TTITLE0=Hobo Blues
TTITLE1=Can't do Nothin' Babe
TTITLE2=Tough Frog to Swallow
TTITLE3=Bus Station Blues
TTITLE4=Baby Please Don't Go
TTITLE5=Chicken Dance
TTITLE6=Big Boss Man
TTITLE7=Wang Dang Doodle
TTITLE8=Standin' At Yo Door
TTITLE9=Josephine
TTITLE10=Sing Sang Sung
EXTD=
EXTT0=
EXTT1=
EXTT2=
EXTT3=
EXTT4=
EXTT5=
EXTT6=
EXTT7=
EXTT8=
EXTT9=
EXTT10=
PLAYORDER=
